# xmcd CD database file
#
# Track frame offsets:
#	150
#	22310
#	44329
#	62451
#	83958
#	99209
#	123342
#	137792
#	156559
#	180052
#
# Disc length: 2580 seconds
#
# Revision: 0
# Processed by: cddbd v1.4b42PL1 Copyright (c) Steve Scherf et al.
# Submitted via: CdAid 2001.05.15.01
#
DISCID=7d0a120a
DTITLE=Strange Brew - Peace Of Mind
DYEAR=1900
DGENRE=
TTITLE0=Ride That Pony
TTITLE1=Empty Heart
TTITLE2=Bing Bang Boogie
TTITLE3=Grim Reaper
TTITLE4=On The Prowl
TTITLE5=That Boy Don't Love Me
TTITLE6=Goin' To Chicago
TTITLE7=Peace Of Mind
TTITLE8=I'm A Big Girl
TTITLE9=Vacation
EXTD=
EXTT0=
EXTT1=
EXTT2=
EXTT3=
EXTT4=
EXTT5=
EXTT6=
EXTT7=
EXTT8=
EXTT9=
PLAYORDER=
